<svg width="481" height="222" viewBox="0 0 481 222" fill="none" xmlns="http://www.w3.org/2000/svg">
<g clip-path="url(#clip0)">
<path d="M191.441 177.34H178.262C178.235 177.34 178.209 177.335 178.184 177.325C178.159 177.314 178.136 177.299 178.117 177.28C178.098 177.261 178.083 177.239 178.073 177.214C178.062 177.189 178.057 177.162 178.057 177.135V171.172C177.297 170.958 176.489 170.981 175.743 171.241L175.662 171.293C174.715 171.765 173.666 171.996 172.608 171.966C170.36 171.966 168.599 171.107 168.599 170.01C168.599 168.913 170.36 168.053 172.608 168.053C173.67 168.026 174.721 168.259 175.672 168.731L175.767 168.793C176.506 169.045 177.305 169.066 178.057 168.853V167.327C178.057 167.3 178.062 167.273 178.072 167.248C178.083 167.223 178.098 167.2 178.117 167.181C178.136 167.162 178.158 167.146 178.183 167.136C178.208 167.126 178.235 167.12 178.262 167.12C178.289 167.12 178.316 167.126 178.341 167.136C178.366 167.146 178.389 167.162 178.408 167.181C178.427 167.2 178.442 167.223 178.452 167.248C178.462 167.273 178.467 167.3 178.467 167.327V168.98C178.467 169.017 178.457 169.053 178.439 169.084C178.42 169.116 178.393 169.142 178.361 169.16C177.474 169.483 176.503 169.488 175.612 169.174C175.595 169.169 175.579 169.161 175.564 169.151L175.458 169.081C174.572 168.648 173.594 168.436 172.608 168.463C170.455 168.463 169.009 169.263 169.009 170.01C169.009 170.757 170.455 171.556 172.608 171.556C173.594 171.587 174.572 171.374 175.457 170.938L175.573 170.87C176.473 170.535 177.462 170.535 178.362 170.868C178.394 170.885 178.421 170.911 178.439 170.943C178.458 170.974 178.467 171.01 178.467 171.046V176.93H191.441C191.496 176.93 191.548 176.952 191.586 176.99C191.625 177.029 191.647 177.081 191.647 177.135C191.647 177.19 191.625 177.242 191.586 177.28C191.548 177.319 191.496 177.34 191.441 177.34L191.441 177.34ZM209.258 177.34H195.687C195.633 177.34 195.58 177.319 195.542 177.28C195.504 177.242 195.482 177.19 195.482 177.135C195.482 177.081 195.504 177.029 195.542 176.99C195.58 176.952 195.633 176.93 195.687 176.93H209.053V163.089H200.248C200.194 163.089 200.142 163.068 200.103 163.029C200.065 162.991 200.043 162.939 200.043 162.884C200.043 162.83 200.065 162.778 200.103 162.739C200.142 162.701 200.194 162.679 200.248 162.679H209.258C209.285 162.679 209.312 162.684 209.337 162.695C209.362 162.705 209.384 162.72 209.403 162.739C209.422 162.758 209.438 162.781 209.448 162.806C209.458 162.831 209.463 162.857 209.463 162.884V177.135C209.463 177.162 209.458 177.189 209.448 177.214C209.438 177.239 209.422 177.261 209.403 177.28C209.384 177.299 209.362 177.314 209.337 177.325C209.312 177.335 209.285 177.34 209.258 177.34Z" fill="black"/>
<path d="M230.824 170.009C230.824 170.979 232.534 171.759 234.634 171.759C235.655 171.788 236.667 171.569 237.584 171.119L237.704 171.049C238.528 170.761 239.425 170.754 240.254 171.029V177.139H209.254V171.049C208.42 170.751 207.508 170.751 206.674 171.049L206.554 171.119C205.637 171.569 204.625 171.788 203.604 171.759C201.504 171.759 199.794 170.979 199.794 170.009C199.794 169.049 201.504 168.259 203.604 168.259C204.629 168.232 205.645 168.455 206.564 168.909L206.674 168.979C207.509 169.272 208.419 169.272 209.254 168.979V162.889H222.514C223.684 162.439 222.514 161.699 222.514 161.699L222.354 161.639C221.494 161.319 220.954 160.829 220.954 160.289C220.954 159.319 222.654 158.539 224.754 158.539C226.854 158.539 228.564 159.319 228.564 160.289C228.564 160.839 228.014 161.329 227.144 161.649L227.004 161.699C227.004 161.699 225.824 162.439 227.004 162.889H240.254V168.989C239.427 169.271 238.529 169.267 237.704 168.979L237.594 168.909C236.674 168.456 235.659 168.233 234.634 168.259C232.534 168.259 230.824 169.039 230.824 170.009Z" fill="black"/>
<path d="M209.254 177.239V191.489H195.944C194.864 191.039 196.004 190.329 196.004 190.329L196.154 190.279C197.014 189.959 197.564 189.469 197.564 188.919C197.564 187.949 195.864 187.169 193.764 187.169C191.664 187.169 189.954 187.949 189.954 188.919C189.954 189.469 190.504 189.949 191.354 190.279L191.514 190.329C191.514 190.329 192.644 191.039 191.584 191.489H178.264V185.399C177.425 185.106 176.512 185.106 175.674 185.399L175.564 185.469C174.647 185.919 173.634 186.138 172.614 186.109C170.504 186.109 168.804 185.329 168.804 184.359C168.804 183.399 170.504 182.609 172.614 182.609C173.64 182.581 174.657 182.808 175.574 183.269L175.674 183.329C176.512 183.622 177.425 183.622 178.264 183.329V177.239H191.514L191.614 177.199C192.564 177.649 191.474 178.329 191.474 178.329L191.334 178.379C190.474 178.699 189.924 179.189 189.924 179.739C189.924 180.709 191.624 181.489 193.724 181.489C195.824 181.489 197.534 180.709 197.534 179.739C197.534 179.189 196.984 178.699 196.134 178.379L195.974 178.329C195.974 178.329 194.864 177.629 195.874 177.179L196.004 177.239H209.254ZM257.9 177.18C256.885 177.63 257.997 178.327 257.997 178.327L258.154 178.382C259.012 178.702 259.555 179.191 259.555 179.738C259.555 180.705 257.852 181.488 255.749 181.488C253.647 181.488 251.943 180.705 251.943 179.738C251.943 179.188 252.493 178.696 253.357 178.377L253.502 178.327C253.502 178.327 254.589 177.649 253.635 177.196L253.539 177.238H240.289V183.332C239.451 183.626 238.539 183.626 237.701 183.332L237.595 183.264C236.677 182.807 235.659 182.583 234.634 182.614C232.532 182.614 230.827 183.397 230.827 184.364C230.827 185.33 232.531 186.114 234.634 186.114C235.655 186.144 236.668 185.922 237.585 185.469L237.701 185.397C238.539 185.103 239.451 185.103 240.289 185.397V191.49H271.282V177.238H258.03L257.9 177.18Z" fill="black"/>
<path d="M209.254 205.974H178.265C178.238 205.974 178.211 205.968 178.186 205.958C178.161 205.948 178.139 205.933 178.12 205.914C178.101 205.895 178.085 205.872 178.075 205.847C178.065 205.822 178.06 205.796 178.06 205.769V199.806C177.297 199.591 176.488 199.615 175.74 199.873L175.674 199.922C174.724 200.391 173.674 200.622 172.615 200.594C170.363 200.594 168.6 199.734 168.6 198.639C168.6 197.543 170.363 196.684 172.615 196.684C173.674 196.657 174.725 196.89 175.674 197.36L175.766 197.422C176.507 197.674 177.307 197.695 178.06 197.482V191.519C178.06 191.492 178.065 191.465 178.075 191.44C178.085 191.415 178.101 191.393 178.12 191.374C178.139 191.355 178.161 191.339 178.186 191.329C178.211 191.319 178.238 191.314 178.265 191.314H191.475C191.525 191.293 191.582 191.292 191.634 191.31C191.686 191.329 191.728 191.366 191.754 191.414C191.766 191.436 191.774 191.461 191.776 191.486C191.779 191.511 191.776 191.537 191.769 191.561C191.761 191.585 191.749 191.607 191.733 191.627C191.717 191.646 191.697 191.662 191.674 191.674L191.625 191.694C191.589 191.709 191.552 191.719 191.515 191.724H178.47V197.608C178.47 197.645 178.46 197.681 178.441 197.713C178.422 197.744 178.395 197.77 178.363 197.788C177.475 198.112 176.502 198.117 175.61 197.803C175.591 197.797 175.574 197.788 175.558 197.776L175.458 197.707C174.573 197.277 173.598 197.067 172.615 197.094C170.458 197.094 169.01 197.893 169.01 198.639C169.01 199.385 170.458 200.184 172.615 200.184C173.6 200.212 174.578 200.002 175.465 199.57L175.565 199.506C176.467 199.172 177.459 199.17 178.363 199.499C178.395 199.517 178.422 199.543 178.441 199.574C178.46 199.606 178.47 199.642 178.47 199.679V205.564H209.049V191.724H196.004C195.973 191.723 195.943 191.716 195.915 191.703L195.853 191.673C195.804 191.649 195.767 191.606 195.75 191.554C195.733 191.503 195.737 191.446 195.761 191.398C195.786 191.349 195.828 191.312 195.88 191.295C195.932 191.278 195.988 191.281 196.037 191.306L196.052 191.314H209.254C209.281 191.314 209.308 191.319 209.333 191.329C209.358 191.339 209.38 191.355 209.399 191.374C209.418 191.393 209.434 191.415 209.444 191.44C209.454 191.465 209.459 191.492 209.459 191.519V205.769C209.459 205.796 209.454 205.822 209.444 205.847C209.434 205.872 209.418 205.895 209.399 205.914C209.38 205.933 209.358 205.948 209.333 205.958C209.308 205.968 209.281 205.974 209.254 205.974Z" fill="black"/>
<path d="M230.824 198.669C230.824 199.639 232.534 200.429 234.634 200.429C235.655 200.455 236.668 200.232 237.584 199.779L237.704 199.709C238.529 199.421 239.427 199.418 240.254 199.699V205.769H209.254V199.679C208.419 199.386 207.509 199.386 206.674 199.679L206.554 199.749C205.637 200.198 204.625 200.418 203.604 200.389C201.504 200.389 199.794 199.609 199.794 198.639C199.794 197.679 201.504 196.889 203.604 196.889C204.629 196.862 205.645 197.085 206.564 197.539L206.674 197.609C207.509 197.902 208.419 197.902 209.254 197.609V191.519H222.514C223.684 191.069 222.514 190.329 222.514 190.329L222.354 190.279C221.494 189.949 220.954 189.469 220.954 188.919C220.954 187.949 222.654 187.169 224.754 187.169C226.854 187.169 228.564 187.949 228.564 188.919C228.564 189.469 228.014 189.959 227.144 190.279L227.004 190.329C227.004 190.329 225.824 191.069 227.004 191.519H240.254V197.649C239.427 197.93 238.529 197.927 237.704 197.639L237.594 197.579C236.677 197.116 235.66 196.89 234.634 196.919C232.534 196.919 230.824 197.709 230.824 198.669Z" fill="black"/>
<path d="M271.284 206.004H240.284C240.257 206.004 240.23 205.999 240.205 205.988C240.181 205.978 240.158 205.963 240.139 205.944C240.12 205.925 240.105 205.902 240.094 205.877C240.084 205.852 240.079 205.826 240.079 205.799V199.804C240.06 199.772 240.05 199.735 240.05 199.698C240.05 199.644 240.071 199.592 240.11 199.554C240.148 199.516 240.2 199.494 240.254 199.494C240.316 199.498 240.376 199.521 240.425 199.561C240.445 199.58 240.461 199.603 240.472 199.628C240.483 199.654 240.489 199.681 240.489 199.709V205.594H271.079V191.754H240.489V197.639C240.489 197.667 240.483 197.694 240.472 197.72C240.461 197.745 240.445 197.768 240.425 197.787C240.376 197.827 240.316 197.85 240.254 197.854C240.217 197.854 240.181 197.844 240.15 197.825C240.118 197.807 240.092 197.78 240.075 197.749C240.057 197.717 240.048 197.681 240.049 197.644C240.049 197.608 240.06 197.572 240.079 197.541V191.549C240.079 191.522 240.084 191.495 240.094 191.47C240.105 191.446 240.12 191.423 240.139 191.404C240.158 191.385 240.18 191.37 240.205 191.359C240.23 191.349 240.257 191.344 240.284 191.344H271.284C271.311 191.344 271.337 191.349 271.362 191.359C271.387 191.37 271.41 191.385 271.429 191.404C271.448 191.423 271.463 191.446 271.473 191.47C271.484 191.495 271.489 191.522 271.489 191.549V205.799C271.489 205.826 271.484 205.852 271.473 205.877C271.463 205.902 271.448 205.925 271.429 205.944C271.41 205.963 271.387 205.978 271.362 205.988C271.337 205.999 271.311 206.004 271.284 206.004V206.004ZM253.464 177.344H240.294C240.267 177.344 240.24 177.338 240.215 177.328C240.19 177.318 240.168 177.303 240.149 177.284C240.13 177.265 240.115 177.242 240.104 177.217C240.094 177.192 240.089 177.166 240.089 177.139V171.179C239.326 170.968 238.519 170.991 237.769 171.243L237.687 171.296C236.739 171.763 235.691 171.992 234.634 171.964C232.383 171.964 230.619 171.105 230.619 170.009C230.619 168.913 232.383 168.054 234.634 168.054C235.694 168.027 236.744 168.26 237.694 168.73L237.813 168.805C238.551 169.043 239.343 169.056 240.089 168.843V162.889C240.089 162.862 240.094 162.835 240.104 162.81C240.115 162.785 240.13 162.763 240.149 162.744C240.168 162.725 240.19 162.71 240.215 162.699C240.24 162.689 240.267 162.684 240.294 162.684H249.723C249.75 162.684 249.777 162.689 249.802 162.699C249.827 162.709 249.85 162.724 249.869 162.743C249.889 162.762 249.904 162.785 249.914 162.81C249.925 162.835 249.93 162.862 249.93 162.889C249.93 162.916 249.925 162.943 249.914 162.968C249.904 162.993 249.889 163.015 249.869 163.034C249.85 163.053 249.827 163.068 249.802 163.079C249.777 163.089 249.75 163.094 249.723 163.094H240.499V168.979C240.499 169.016 240.489 169.052 240.469 169.084C240.45 169.116 240.423 169.142 240.39 169.159C240.371 169.169 240.35 169.176 240.328 169.182C239.456 169.482 238.508 169.479 237.638 169.173L237.485 169.082C236.598 168.649 235.62 168.437 234.634 168.464C232.68 168.464 231.029 169.171 231.029 170.009C231.029 170.847 232.68 171.554 234.634 171.554C235.62 171.582 236.597 171.372 237.484 170.941L237.6 170.872C238.485 170.549 239.454 170.54 240.345 170.845C240.359 170.85 240.372 170.857 240.384 170.865C240.418 170.882 240.447 170.908 240.468 170.941C240.488 170.973 240.499 171.011 240.499 171.049V176.934H253.464C253.491 176.934 253.517 176.939 253.542 176.949C253.568 176.959 253.59 176.974 253.61 176.993C253.629 177.012 253.644 177.035 253.654 177.06C253.665 177.085 253.67 177.112 253.67 177.139C253.67 177.166 253.665 177.193 253.654 177.218C253.644 177.243 253.629 177.265 253.61 177.284C253.59 177.303 253.568 177.318 253.542 177.329C253.517 177.339 253.491 177.344 253.464 177.344V177.344ZM270.508 177.34H257.707C257.652 177.34 257.6 177.318 257.562 177.28C257.523 177.241 257.502 177.189 257.502 177.135C257.502 177.08 257.523 177.028 257.562 176.99C257.6 176.951 257.652 176.93 257.707 176.93H270.507C270.562 176.93 270.614 176.951 270.653 176.99C270.691 177.028 270.713 177.08 270.713 177.135C270.713 177.189 270.691 177.241 270.653 177.28C270.614 177.318 270.562 177.34 270.507 177.34H270.508ZM205.697 148.032C210.9 147.874 216.103 147.806 221.306 147.69L236.916 147.495C247.322 147.38 257.728 147.391 268.135 147.332C278.541 147.387 288.947 147.381 299.354 147.493L314.963 147.689C320.167 147.805 325.37 147.873 330.573 148.032C325.37 148.191 320.167 148.259 314.963 148.375L299.354 148.571C288.947 148.682 278.541 148.677 268.135 148.732C257.728 148.673 247.322 148.684 236.916 148.568L221.306 148.373C216.103 148.258 210.9 148.19 205.697 148.032ZM117.278 62.126C114.995 62.1121 112.716 61.9434 110.455 61.6212C110.391 61.6123 110.329 61.591 110.273 61.5587C109.184 60.9288 103.717 57.712 103.013 56.3047C102.109 55.2226 100.886 54.4539 99.5192 54.1085C96.8791 53.2462 92.4558 52.8799 86.3703 56.0206C86.2899 56.0622 86.1997 56.0811 86.1093 56.0755C86.0189 56.0698 85.9318 56.0397 85.8572 55.9883C85.7826 55.937 85.7233 55.8664 85.6857 55.784C85.6481 55.7016 85.6336 55.6106 85.6438 55.5206C85.6936 55.0801 86.9558 44.7266 95.2683 42.6485C95.3601 42.6338 98.2287 42.1963 99.7829 36.4444C101.454 30.2618 104.641 28.2237 106.968 26.7364L107.226 26.5704C109.353 25.2032 111.881 19.3282 112.382 15.6573C112.932 11.6241 119.278 1.12214 131.001 0.259838C141.003 -0.473562 154.36 6.67292 156.142 11.0841C156.359 11.5174 156.426 12.0109 156.332 12.4866C156.238 12.9623 155.988 13.3931 155.622 13.711C149.477 21.7595 142.084 28.7736 133.723 34.4874V49.6915C133.831 51.2052 133.611 52.7244 133.076 54.1448C132.542 55.5651 131.706 56.853 130.627 57.92C127.795 60.7198 123.319 62.126 117.278 62.126ZM110.689 60.6436C119.885 61.8907 126.357 60.7344 129.924 57.209C130.894 56.2371 131.646 55.0694 132.13 53.7839C132.613 52.4983 132.817 51.1245 132.727 49.754L132.723 34.2217C132.723 34.14 132.743 34.0594 132.782 33.9872C132.82 33.915 132.876 33.8534 132.944 33.8077C141.315 28.1278 148.711 21.1285 154.842 13.0821C154.868 13.0462 154.897 13.014 154.931 12.9864C155.156 12.8097 155.309 12.557 155.361 12.2757C155.413 11.9943 155.361 11.7037 155.215 11.4581C153.571 7.39068 140.528 0.565479 131.074 1.25787C120.078 2.06646 113.875 12.1104 113.373 15.792C112.896 19.29 110.417 25.7081 107.767 27.4122L107.507 27.5782C105.195 29.0567 102.319 30.8965 100.749 36.7061C98.9977 43.1836 95.5861 43.6162 95.4416 43.6309C89.2604 45.1807 87.3102 52.1416 86.7976 54.6934C92.739 51.8711 97.1399 52.2813 99.8293 53.1573C101.454 53.5725 102.891 54.5239 103.908 55.8575C104.344 56.7296 108.26 59.2325 110.689 60.6436H110.689ZM147.913 147.397L147.9 147.407C147.781 147.616 147.67 147.822 147.547 148.032L147.913 147.397Z" fill="black"/>
<path d="M179.714 104.759C178.454 102.999 177.704 90.1289 177.704 90.1289C175.934 59.6089 154.084 54.6489 154.084 54.6489C153.76 55.0413 153.391 55.3938 152.984 55.6989C148.564 58.9789 139.864 57.4689 139.864 57.4689C139.864 57.4689 135.834 58.7289 134.444 64.279C133.054 69.8288 135.454 85.9689 132.174 85.0888C128.894 84.2089 121.564 84.3188 121.004 61.6188C121.004 61.6188 121.014 61.5387 121.044 61.3988C117.54 61.7552 114.005 61.6645 110.524 61.1288C110.524 61.1288 104.134 57.4288 103.464 56.0788C102.784 54.7389 96.5636 50.1989 86.1436 55.5788C86.1436 55.5788 75.5536 56.549 64.3236 68.779C53.0936 81.009 41.2437 104.509 38.7236 149.569L47.4436 152.139C47.4836 147.439 47.7336 142.749 48.1136 138.069C48.6223 131.703 49.5375 125.377 50.8536 119.129C52.2436 112.929 53.9536 106.649 57.2236 101.149C55.8622 104.016 54.7773 107.006 53.9836 110.079C53.1336 113.129 52.4636 116.229 51.9036 119.339C50.8036 125.579 50.0336 131.879 49.5036 138.189C48.9536 144.509 48.6536 150.849 48.5436 157.189C48.4936 160.359 48.5236 163.529 48.6936 166.699C48.7636 168.279 48.8536 169.859 49.0536 171.429C49.1463 172.215 49.2798 172.996 49.4536 173.769C49.5365 174.154 49.6502 174.532 49.7936 174.899C49.8775 175.103 49.9779 175.301 50.0936 175.489L50.1436 175.539C50.2482 175.643 50.3658 175.734 50.4936 175.809C50.4936 175.809 81.0336 163.649 102.954 152.939C102.904 150.429 102.934 147.929 102.924 145.439L102.814 137.949C102.624 132.959 102.484 127.979 102.034 123.019C101.674 118.059 101.074 113.109 100.254 108.199C99.8536 105.749 99.357 103.312 98.7636 100.889C98.2144 98.4559 97.4789 96.0688 96.5636 93.7487C98.7787 98.2642 100.376 103.057 101.314 107.999C101.874 110.449 102.244 112.939 102.634 115.419C102.934 117.909 103.254 120.409 103.434 122.909C103.654 125.409 103.744 127.919 103.844 130.419C103.924 132.929 103.914 135.439 103.894 137.939L103.604 145.449C103.384 147.949 103.214 150.449 102.954 152.939C102.954 152.939 105.274 156.679 129.744 152.059C129.744 152.059 147.414 147.999 147.904 147.409C158.864 128.229 154.084 114.349 154.084 114.349C153.622 111.941 153.288 109.511 153.084 107.069C152.844 104.629 152.734 102.189 152.674 99.7389C152.634 97.2887 152.674 94.8388 152.864 92.3888C152.994 89.9271 153.403 87.4882 154.084 85.1188C153.924 87.5688 153.944 89.9889 153.954 92.4188C153.984 94.8487 154.014 97.2789 154.074 99.7088C154.144 104.579 154.264 109.439 154.084 114.349C160.734 115.609 179.714 104.759 179.714 104.759ZM91.0636 81.0688C90.7114 80.6334 90.3161 80.2348 89.8836 79.8789L88.6336 78.7888C88.1936 78.449 87.7136 78.1689 87.2536 77.8589C85.3911 76.6707 83.3107 75.8651 81.1336 75.489C78.9541 75.0854 76.7274 75.0011 74.5236 75.239C72.3007 75.453 70.1077 75.909 67.9836 76.5989C70.0385 75.6505 72.222 75.0104 74.4636 74.699C76.7219 74.3821 79.0156 74.4159 81.2636 74.7991C83.522 75.2176 85.6659 76.1105 87.5536 77.4189C89.4131 78.7206 90.9912 80.3837 92.1936 82.3088L91.0636 81.0688Z" fill="black"/>
<path d="M121.047 61.3996L123.353 60.9431C124.099 60.7056 124.856 60.5041 125.581 60.2268C127.028 59.6715 128.37 58.877 129.553 57.8765C130.691 56.8541 131.577 55.5825 132.141 54.1611C132.699 52.7598 132.921 51.2476 132.791 49.7451C132.789 49.729 132.788 49.7073 132.787 49.6914C132.672 44.5347 132.641 39.3782 132.564 34.2217C132.562 34.1185 132.585 34.0165 132.632 33.9242C132.678 33.832 132.746 33.7523 132.829 33.6919L132.855 33.6741C134.906 32.2114 136.936 30.718 138.864 29.0955C140.816 27.5042 142.671 25.7983 144.494 24.0635C146.323 22.3347 148.07 20.5197 149.753 18.6511C151.436 16.7979 153.022 14.8598 154.506 12.8445C154.526 12.8175 154.547 12.7921 154.57 12.7683L154.667 12.6697C154.746 12.605 154.81 12.525 154.856 12.4347C154.902 12.3443 154.93 12.2455 154.936 12.1443C154.916 11.8462 154.824 11.5574 154.667 11.3027C154.228 10.6075 153.686 9.98225 153.061 9.44771C151.708 8.29205 150.236 7.28284 148.67 6.43697C145.505 4.69778 142.126 3.37895 138.62 2.51388C136.887 2.07966 135.118 1.80789 133.334 1.70211C132.456 1.65285 131.575 1.67449 130.7 1.76681C129.825 1.8427 128.957 1.98743 128.104 2.19967C127.248 2.40015 126.407 2.65881 125.586 2.97384C124.772 3.30966 123.979 3.69742 123.215 4.13473C121.668 5.00313 120.246 6.07701 118.987 7.32711C117.709 8.5656 116.582 9.9504 115.629 11.4528C114.652 12.893 113.981 14.5181 113.657 16.2277C113.304 18.1104 112.733 19.9454 111.954 21.6953C111.226 23.4903 110.22 25.1594 108.972 26.6413C108.801 26.8281 108.601 27.0026 108.416 27.1813C108.208 27.339 107.965 27.5285 107.771 27.6479L106.616 28.3805C105.871 28.8583 105.174 29.4054 104.532 30.0145C103.269 31.2572 102.274 32.7459 101.61 34.3885C101.263 35.2228 100.965 36.0765 100.718 36.9454C100.451 37.8623 100.106 38.7549 99.6888 39.6139C99.2565 40.4858 98.6981 41.2893 98.0318 41.9986C97.3462 42.7664 96.4361 43.2986 95.4308 43.5196L95.484 43.5101C94.1959 43.8262 92.9789 44.3825 91.897 45.1498C90.824 45.9567 89.8877 46.931 89.1241 48.0353C88.3726 49.1657 87.7452 50.3738 87.2529 51.6388C86.7493 52.9101 86.3769 54.2295 86.1416 55.5765C86.3011 54.2107 86.5997 52.8648 87.0329 51.5597C87.4611 50.2427 88.043 48.9808 88.7664 47.7999C89.5143 46.6148 90.4483 45.5579 91.5326 44.67C92.6547 43.8001 93.9316 43.1509 95.2957 42.7567L95.3493 42.7472C96.145 42.5033 96.8511 42.0302 97.3793 41.3871C97.9498 40.7199 98.4223 39.9747 98.7825 39.1742C99.1518 38.3598 99.452 37.5158 99.68 36.6512C99.9157 35.7356 100.204 34.8345 100.544 33.9525C101.228 32.1394 102.275 30.4856 103.622 29.0933C104.305 28.4105 105.05 27.7934 105.848 27.2503L107.013 26.4679C107.209 26.3389 107.322 26.2301 107.483 26.1109C107.623 25.9625 107.772 25.8309 107.908 25.6732C109.002 24.286 109.875 22.738 110.495 21.0841C111.169 19.4313 111.666 17.7118 111.979 15.9544C112.05 15.4614 112.154 14.9736 112.29 14.4944C112.429 14.0184 112.599 13.5523 112.801 13.0994C113.185 12.2107 113.634 11.3516 114.145 10.5294C115.159 8.89879 116.363 7.39367 117.73 6.04523C119.087 4.67615 120.623 3.49626 122.295 2.53742C123.131 2.05035 123.997 1.6178 124.888 1.2425C125.79 0.886455 126.715 0.592555 127.656 0.36286C128.596 0.121564 129.552 -0.0461792 130.518 -0.138849C131.481 -0.247339 132.451 -0.279174 133.419 -0.234064C135.329 -0.138528 137.226 0.135287 139.085 0.583807C142.768 1.48988 146.309 2.89589 149.61 4.76269C151.291 5.69067 152.869 6.79513 154.316 8.05736C155.09 8.73418 155.755 9.52744 156.286 10.4087C156.603 10.9526 156.771 11.5703 156.773 12.1997C156.755 12.5595 156.662 12.9117 156.501 13.234C156.34 13.5562 156.113 13.8416 155.836 14.072L155.998 13.8974C154.455 15.9597 152.806 17.9408 151.059 19.833C149.328 21.7224 147.535 23.5532 145.659 25.2961C143.783 27.0385 141.835 28.6987 139.816 30.2766C137.815 31.8738 135.714 33.3388 133.594 34.7688L133.885 34.2217C133.807 39.3781 133.776 44.5346 133.661 49.6914L133.657 49.6379C133.742 51.28 133.436 52.9188 132.765 54.4197C132.105 55.8994 131.112 57.2064 129.863 58.2385C128.607 59.2227 127.188 59.9802 125.672 60.477C124.919 60.717 124.143 60.8774 123.382 61.073L121.047 61.3996Z" fill="black"/>
<path d="M155.254 13.4409C155.251 13.543 155.121 13.6714 155.04 13.8064L154.766 14.197L154.207 14.9709C153.836 15.4888 153.437 15.9841 153.05 16.489C152.258 17.4854 151.452 18.4717 150.619 19.4351C148.963 21.3706 147.198 23.2136 145.372 24.9927C143.539 26.7639 141.672 28.5095 139.677 30.1045C137.713 31.7368 135.644 33.2395 133.554 34.7097L133.813 34.2217C133.822 36.7998 133.868 39.3782 133.846 41.9566L133.803 49.6915L133.799 49.6206C133.899 51.2888 133.597 52.9566 132.918 54.4836C132.254 55.9911 131.249 57.3242 129.983 58.3784C128.71 59.3795 127.276 60.1547 125.741 60.6702C124.982 60.9212 124.2 61.0918 123.432 61.2974L121.079 61.6675L121.311 61.4526L121.266 61.6733L121.271 61.6167L121.412 65.3C121.489 66.5254 121.614 67.7473 121.712 68.9717C121.986 71.4075 122.484 73.8127 123.201 76.1565C123.843 78.4962 125.074 80.6325 126.776 82.3616C127.658 83.1553 128.703 83.7465 129.838 84.094C130.415 84.271 131.001 84.417 131.594 84.5312L132.055 84.635L132.284 84.686C132.326 84.6846 132.369 84.6877 132.411 84.695C132.553 84.6896 132.666 84.6054 132.802 84.4179C133.233 83.346 133.447 82.1994 133.432 81.0443C133.484 79.8327 133.484 78.6088 133.472 77.3827C133.442 74.9286 133.343 72.4653 133.338 69.9838C133.34 68.7424 133.37 67.4965 133.479 66.236C133.57 64.9426 133.856 63.6705 134.326 62.4623C134.773 61.1988 135.477 60.0416 136.393 59.0638C137.31 58.086 138.419 57.3088 139.651 56.7812C139.735 56.7473 139.827 56.7361 139.917 56.7487L139.989 56.759C142.228 57.0803 144.496 57.1524 146.75 56.974C148.938 56.8897 151.053 56.16 152.828 54.8769C153.629 54.1707 154.27 53.3003 154.705 52.3246C155.191 51.3207 155.569 50.2685 155.835 49.1855C156.394 46.9842 156.715 44.7289 156.791 42.4589C156.795 42.3228 156.842 42.1914 156.923 42.0825C157.005 41.9736 157.119 41.8924 157.248 41.85L157.262 41.8456C157.588 41.7848 157.883 41.6114 158.094 41.3558C158.306 41.1001 158.421 40.7784 158.419 40.4467C158.461 39.6393 158.319 38.8331 158.004 38.0885L157.991 38.0561C157.959 37.9732 157.947 37.8838 157.957 37.7956L158.697 31.4679C159.039 29.3995 159.195 27.3047 159.164 25.2084C159.049 23.117 158.652 21.0506 157.985 19.0651C157.644 18.0691 157.243 17.0944 156.787 16.1459C156.55 15.6747 156.308 15.2059 156.044 14.7489L155.636 14.0705L155.421 13.7379L155.31 13.5748L155.254 13.4938C155.246 13.4839 155.255 13.4702 155.254 13.4409ZM155.25 13.3008C157.901 16.729 159.521 20.8416 159.919 25.157C160.029 27.3017 159.949 29.4521 159.678 31.5825L159.104 37.9145L159.058 37.622C159.253 38.0769 159.404 38.5494 159.509 39.0332C159.624 39.5322 159.664 40.0457 159.628 40.5566C159.616 41.1424 159.409 41.7075 159.041 42.1634C158.673 42.6193 158.164 42.9403 157.594 43.0761L158.065 42.4631C158.051 44.8464 157.76 47.22 157.198 49.5361C156.914 50.7138 156.507 51.8584 155.984 52.9511C155.468 54.1055 154.711 55.1359 153.763 55.9729C151.77 57.4635 149.376 58.3233 146.89 58.4416C144.506 58.6528 142.105 58.5642 139.743 58.1779L140.081 58.1557C139.051 58.5742 138.13 59.2206 137.387 60.0464C136.611 60.8985 135.999 61.8856 135.58 62.9587C134.664 65.0991 134.67 67.5507 134.59 69.9958C134.542 72.4431 134.587 74.9072 134.563 77.3818C134.551 78.6196 134.522 79.8611 134.422 81.1091C134.365 81.7344 134.304 82.3598 134.186 82.991C134.088 83.6644 133.863 84.3133 133.524 84.9031C133.403 85.0918 133.238 85.248 133.042 85.358C132.847 85.468 132.628 85.5285 132.404 85.5342C132.293 85.5237 132.181 85.5088 132.072 85.49L131.851 85.4333L131.414 85.3198C130.801 85.1791 130.196 85.0075 129.601 84.8056C128.382 84.3931 127.269 83.72 126.337 82.8332C124.624 80.9815 123.388 78.7409 122.734 76.3047C122.041 73.9237 121.556 71.4872 121.284 69.0224C121.167 67.7924 121.024 66.5634 120.929 65.3313L120.735 61.6299C120.734 61.6133 120.735 61.5968 120.738 61.5806L120.739 61.5727L120.782 61.3469C120.792 61.2943 120.818 61.2459 120.856 61.2081C120.894 61.1703 120.942 61.1449 120.995 61.1352L121.015 61.1318L123.304 60.7187C124.041 60.4912 124.792 60.3 125.512 60.0334C126.94 59.4968 128.266 58.72 129.433 57.7366C130.548 56.7454 131.418 55.5098 131.976 54.1265C132.534 52.7432 132.764 51.2496 132.649 49.7624L132.646 49.7319L132.645 49.6914L132.602 41.9565C132.58 39.3781 132.626 36.7998 132.635 34.2217C132.636 34.1254 132.66 34.0308 132.705 33.9458C132.75 33.8608 132.815 33.7878 132.895 33.7331C134.976 32.3105 137.039 30.855 139.003 29.2676C140.98 27.6992 142.915 26.073 144.78 24.3667C146.66 22.6741 148.436 20.8716 150.193 19.0491C151.069 18.1357 151.921 17.198 152.759 16.2483C153.61 15.2759 154.361 14.3586 155.25 13.3008V13.3008Z" fill="black"/>
<path d="M141.488 27.9161C143.444 27.6013 145.433 27.56 147.4 27.7933C149.378 27.9768 151.309 28.5019 153.108 29.3453C151.162 28.9903 149.258 28.6949 147.323 28.4891C145.391 28.2687 143.455 28.1215 141.488 27.9161ZM148.189 34.558C148.462 34.5485 148.72 34.4337 148.909 34.2376C149.099 34.0416 149.205 33.7796 149.205 33.507C149.205 33.2344 149.099 32.9725 148.909 32.7764C148.72 32.5804 148.462 32.4655 148.189 32.4561C147.917 32.4655 147.659 32.5804 147.469 32.7764C147.28 32.9725 147.174 33.2344 147.174 33.507C147.174 33.7796 147.28 34.0416 147.469 34.2376C147.659 34.4337 147.917 34.5485 148.189 34.558V34.558ZM161.179 29.3453C160.391 29.3312 159.603 29.3576 158.818 29.4244L156.468 29.5985L156.732 29.4208C156.462 30.1309 156.296 30.8766 156.24 31.6344C156.174 32.3958 156.219 33.1628 156.372 33.9115C156.551 34.6678 156.808 35.4039 157.137 36.108C157.295 36.4659 157.475 36.8137 157.676 37.1495C157.889 37.4501 158.122 37.8495 158.531 37.8556C158.101 37.9589 157.756 37.5675 157.487 37.2958C157.212 36.9906 156.97 36.6584 156.763 36.3043C156.324 35.6069 155.986 34.851 155.758 34.059C155.546 33.2496 155.473 32.4101 155.542 31.5763C155.609 30.7378 155.82 29.9171 156.167 29.1508L156.17 29.1454C156.193 29.0952 156.23 29.0525 156.276 29.0221C156.323 28.9917 156.376 28.9747 156.432 28.973C157.229 28.9496 158.021 28.9613 158.816 29.0077C159.613 29.0382 160.405 29.1513 161.179 29.3453V29.3453Z" fill="black"/>
<path d="M157.963 34.7469C158.235 34.7375 158.494 34.6226 158.683 34.4266C158.872 34.2305 158.978 33.9686 158.978 33.696C158.978 33.4234 158.872 33.1614 158.683 32.9654C158.494 32.7693 158.235 32.6545 157.963 32.645C157.691 32.6545 157.432 32.7693 157.243 32.9654C157.054 33.1614 156.948 33.4234 156.948 33.696C156.948 33.9686 157.054 34.2305 157.243 34.4266C157.432 34.6226 157.691 34.7375 157.963 34.7469V34.7469ZM148.694 45.9921L150.902 47.1837C151.617 47.5689 152.365 47.8898 153.136 48.1427C153.461 48.2979 153.82 48.3639 154.179 48.334C154.537 48.3042 154.881 48.1795 155.175 47.9728C155.624 47.3148 155.864 46.5365 155.864 45.7399C156.003 46.1658 156.051 46.6165 156.004 47.0623C155.958 47.5081 155.817 47.9389 155.592 48.3266C155.434 48.5216 155.237 48.6813 155.013 48.7952C154.789 48.9091 154.544 48.9747 154.293 48.9877C153.834 49.0102 153.374 48.9512 152.935 48.8134C152.111 48.5423 151.332 48.1507 150.623 47.6513C149.918 47.1741 149.271 46.6174 148.694 45.9921V45.9921ZM151.027 38.9929C150.991 39.5392 150.995 40.0874 151.038 40.6332C151.113 41.1624 151.279 41.6743 151.531 42.1457C151.214 42.0674 150.931 41.8864 150.727 41.6308C150.513 41.3697 150.379 41.0518 150.343 40.7158C150.302 40.3942 150.343 40.0674 150.462 39.7661C150.582 39.4648 150.776 39.1987 151.027 38.9929V38.9929ZM133.224 49.6913C133.86 50.2982 134.444 50.9579 134.97 51.6632L135.749 52.682C136.008 53.0324 136.288 53.3673 136.587 53.685C136.132 53.5864 135.71 53.3736 135.36 53.0665C135.009 52.7797 134.692 52.4527 134.416 52.0924C133.854 51.3849 133.448 50.5667 133.224 49.6913V49.6913ZM158.52 41.8126C158.986 44.5932 159.26 47.3585 159.611 50.1093C159.785 51.4821 159.957 52.8568 160.205 54.2091C160.323 54.8846 160.475 55.5537 160.661 56.2138C160.818 56.8859 161.101 57.5223 161.494 58.0898C160.465 57.0826 159.754 55.7967 159.446 54.3903C159.062 53.0283 158.786 51.6383 158.619 50.2331C158.264 47.4393 158.231 44.614 158.52 41.8126ZM41.7814 150.473C41.7995 152.416 41.6856 154.358 41.4404 156.286C41.2267 158.218 40.8804 160.133 40.4041 162.017C40.3844 160.073 40.4984 158.131 40.7451 156.203C40.9604 154.272 41.3066 152.357 41.7814 150.473V150.473ZM48.1515 163.364C44.992 163.03 41.8379 162.66 38.6891 162.252L38.9306 162.131C37.628 164.805 36.4671 167.545 35.4528 170.34C34.4449 173.141 33.517 175.971 32.6962 178.833C31.9109 181.705 31.1669 184.591 30.5637 187.511C29.9355 190.426 29.4461 193.368 28.9697 196.32C29.2291 193.344 29.5681 190.367 30.1141 187.424C30.5949 184.467 31.3035 181.554 32.072 178.66C32.8481 175.765 33.7724 172.912 34.8411 170.112C35.875 167.294 37.1023 164.551 38.5143 161.902C38.5376 161.86 38.5732 161.826 38.6164 161.804C38.6596 161.783 38.7084 161.775 38.7562 161.781C41.8927 162.276 45.0245 162.803 48.1515 163.364ZM52.3642 175.577C52.8458 178.264 53.5341 180.909 54.4229 183.491C55.2507 186.081 56.3759 188.567 57.7758 190.899C59.1804 193.212 60.9098 195.311 62.911 197.133C64.9192 198.935 67.1598 200.461 69.5731 201.669C74.4415 204.02 79.874 204.953 85.2482 204.361C85.9108 204.261 86.5865 204.24 87.2383 204.076L89.2039 203.648L93.147 202.566C95.7671 201.807 98.3762 201.011 100.966 200.156C106.143 198.437 111.26 196.551 116.319 194.498C121.373 192.439 126.34 190.17 131.273 187.83C136.205 185.487 141.06 182.976 145.861 180.366C150.673 177.775 155.404 175.033 160.091 172.218L160.069 172.234C163.047 170.273 166.359 168.875 169.841 168.11C173.297 167.31 176.848 166.999 180.39 167.186C183.931 167.36 187.434 167.989 190.814 169.057C191.637 169.333 192.478 169.553 193.331 169.716C194.162 169.851 195.012 169.805 195.823 169.582C196.206 169.467 196.559 169.267 196.854 168.998C197.15 168.729 197.381 168.397 197.532 168.027C197.806 167.24 197.902 166.402 197.811 165.574L197.811 165.564C197.81 165.518 197.818 165.471 197.835 165.429C197.853 165.386 197.879 165.347 197.911 165.314C198.478 164.747 198.994 164.131 199.453 163.474C199.92 162.827 200.305 162.127 200.602 161.387C200.901 160.672 201.051 159.904 201.043 159.129C200.996 158.378 200.751 157.652 200.332 157.027C200.274 156.938 200.253 156.829 200.275 156.725C200.297 156.621 200.36 156.53 200.449 156.472L200.487 156.45C201.505 155.933 202.448 155.28 203.29 154.509C204.13 153.786 204.761 152.849 205.114 151.798C205.181 151.543 205.228 151.283 205.252 151.02C205.241 150.749 205.266 150.518 205.228 150.204C205.173 149.61 205.137 149.014 205.109 148.416C205.037 147.198 205.079 145.976 205.236 144.766C205.247 144.689 205.281 144.617 205.334 144.559L205.366 144.523C207.412 142.342 208.911 139.706 209.742 136.833C210.13 135.43 210.175 133.955 209.874 132.531C209.823 132.176 209.726 131.83 209.583 131.501C209.465 131.163 209.328 130.833 209.173 130.51C208.858 129.889 208.458 129.314 207.987 128.801C207.508 128.355 206.914 128.051 206.272 127.922C205.63 127.794 204.965 127.845 204.351 128.072C203.742 128.306 203.21 128.705 202.816 129.225C202.389 129.824 202 130.449 201.65 131.096C200.926 132.427 200.271 133.794 199.685 135.192C199.04 136.781 197.825 138.073 196.278 138.814C194.739 139.47 193.045 139.676 191.393 139.405C189.769 139.202 188.205 138.664 186.801 137.823C183.985 136.109 181.947 133.367 181.116 130.177C181.011 129.784 180.949 129.38 180.865 128.982L180.729 127.767L180.571 125.49C180.445 123.975 180.28 122.465 180.035 120.978C179.823 119.512 179.459 118.071 178.949 116.68C178.735 116.063 178.387 115.501 177.929 115.034C177.755 114.871 177.529 114.776 177.291 114.765C177.053 114.755 176.82 114.829 176.631 114.975L176.415 115.056C176.287 115.104 176.164 115.162 176.047 115.232C175.894 115.322 175.747 115.421 175.607 115.529C175.315 115.77 175.045 116.036 174.8 116.324C174.297 116.942 173.865 117.613 173.511 118.325C172.796 119.814 172.26 121.382 171.916 122.997C171.545 124.631 171.268 126.286 171.089 127.953C170.923 128.824 170.811 129.71 170.592 130.568L170.187 131.837C170.068 132.264 169.91 132.679 169.713 133.077C168.244 136.282 166.058 139.108 163.325 141.336C160.656 143.576 157.661 145.394 154.443 146.729C154.427 146.736 154.41 146.741 154.394 146.746C145.921 149.007 137.394 151.013 128.778 152.627C124.469 153.421 120.136 154.117 115.762 154.489C113.575 154.691 111.378 154.761 109.183 154.698C108.634 154.683 108.085 154.649 107.538 154.581C106.989 154.531 106.444 154.449 105.904 154.335C104.8 154.171 103.762 153.704 102.907 152.986C102.893 152.973 102.886 152.955 102.886 152.936C102.886 152.918 102.893 152.9 102.906 152.887C102.92 152.874 102.938 152.867 102.957 152.867C102.975 152.867 102.993 152.875 103.006 152.887C103.856 153.559 104.874 153.983 105.948 154.113C106.482 154.211 107.022 154.278 107.563 154.312C108.104 154.365 108.647 154.384 109.192 154.385C111.372 154.39 113.55 154.263 115.715 154.005C120.049 153.499 124.353 152.744 128.638 151.9C137.199 150.171 145.691 148.045 154.092 145.675L154.042 145.692C157.116 144.36 159.971 142.57 162.508 140.382C165.054 138.25 167.079 135.562 168.425 132.526C168.607 132.159 168.752 131.775 168.859 131.38L169.23 130.211C169.429 129.42 169.526 128.605 169.683 127.803C169.865 126.078 170.147 124.365 170.527 122.672C170.893 120.947 171.463 119.271 172.225 117.681C172.629 116.865 173.123 116.096 173.698 115.39C174.005 115.028 174.344 114.694 174.71 114.393C175.127 114.049 175.608 113.791 176.126 113.635L175.91 113.716C176.359 113.45 176.872 113.312 177.394 113.317C177.943 113.346 178.465 113.561 178.875 113.927C179.515 114.541 180.004 115.295 180.303 116.13C180.858 117.62 181.255 119.164 181.488 120.737C181.745 122.279 181.917 123.822 182.049 125.366C182.115 126.138 182.17 126.909 182.215 127.681L182.328 128.755C182.402 129.107 182.453 129.464 182.544 129.812C183.263 132.639 185.051 135.076 187.531 136.61C188.765 137.359 190.141 137.842 191.572 138.029C192.966 138.274 194.401 138.118 195.71 137.579C196.966 136.984 197.951 135.938 198.471 134.65C199.081 133.22 199.763 131.822 200.515 130.461C200.899 129.759 201.328 129.084 201.798 128.438C202.203 127.909 202.715 127.472 203.3 127.155C203.885 126.838 204.531 126.648 205.195 126.599C205.859 126.549 206.526 126.64 207.152 126.867C207.778 127.093 208.349 127.449 208.828 127.912C209.91 129.151 210.659 130.646 211.005 132.254C211.351 133.862 211.282 135.532 210.806 137.107C209.892 140.147 208.265 142.924 206.059 145.207L206.189 144.965C206.035 146.097 205.983 147.241 206.034 148.383C206.054 148.965 206.081 149.548 206.127 150.131C206.147 150.449 206.152 150.767 206.14 151.085C206.107 151.409 206.045 151.73 205.956 152.044C205.546 153.241 204.818 154.304 203.851 155.12C202.938 155.935 201.918 156.621 200.819 157.158L200.974 156.581C201.468 157.333 201.75 158.206 201.79 159.106C201.79 159.982 201.61 160.849 201.262 161.653C200.934 162.439 200.512 163.182 200.004 163.865C199.51 164.552 198.956 165.193 198.349 165.782L198.45 165.522C198.537 166.452 198.412 167.389 198.086 168.264C197.896 168.709 197.61 169.106 197.248 169.427C196.887 169.748 196.458 169.984 195.994 170.12C195.1 170.357 194.165 170.397 193.253 170.237C192.377 170.064 191.514 169.834 190.668 169.546C187.33 168.471 183.868 167.831 180.366 167.641C176.867 167.422 173.355 167.727 169.946 168.546C166.537 169.322 163.297 170.712 160.387 172.65L160.371 172.661L160.364 172.666C151.026 178.376 141.558 183.904 131.734 188.775C121.938 193.722 111.778 197.912 101.342 201.308C98.7305 202.15 96.1011 202.933 93.4615 203.678L89.4845 204.741L87.438 205.172C86.7595 205.336 86.0568 205.356 85.3676 205.454C82.5939 205.765 79.7895 205.66 77.0469 205.142C74.313 204.614 71.6635 203.717 69.1708 202.476C64.2002 199.942 60.0646 196.029 57.2583 191.207C55.9057 188.804 54.8358 186.254 54.07 183.605C53.2499 180.987 52.6332 178.309 52.2255 175.596C52.2229 175.577 52.2276 175.559 52.2388 175.544C52.2499 175.529 52.2665 175.519 52.2849 175.516C52.3033 175.514 52.3217 175.519 52.3365 175.531C52.3512 175.542 52.3611 175.558 52.3642 175.577V175.577Z" fill="black"/>
<path d="M198.635 148.649C199.929 148.253 201.182 147.732 202.375 147.094C203.557 146.502 204.601 145.668 205.439 144.647L205.446 144.638C205.473 144.601 205.508 144.57 205.548 144.546C205.588 144.523 205.631 144.507 205.677 144.501C205.723 144.495 205.769 144.497 205.814 144.509C205.858 144.52 205.9 144.54 205.937 144.568C205.974 144.596 206.005 144.63 206.028 144.67C206.052 144.71 206.067 144.754 206.074 144.799C206.08 144.845 206.077 144.891 206.066 144.936C206.054 144.981 206.034 145.023 206.007 145.059L205.987 145.083C205.012 146.095 203.834 146.888 202.529 147.409C201.275 147.947 199.97 148.363 198.635 148.649ZM153.771 132.012C154.13 133.044 154.541 134.042 154.964 135.027C155.392 136.005 155.871 136.96 156.401 137.888C156.936 138.804 157.543 139.677 158.215 140.498C158.917 141.311 159.7 142.049 160.553 142.702C159.535 142.266 158.607 141.645 157.815 140.871C157.035 140.081 156.356 139.197 155.795 138.239C154.692 136.328 154.002 134.207 153.771 132.012V132.012ZM178.325 105.529C179.005 106.779 179.645 108.039 180.315 109.289L179.905 109.449C179.355 108.149 178.825 106.849 178.325 105.529ZM195.965 138.219C195.294 137.805 194.713 137.261 194.255 136.619C193.765 136.019 193.305 135.379 192.855 134.739C192.335 133.969 191.845 133.189 191.365 132.399L191.975 132.149C192.395 132.929 192.825 133.709 193.275 134.479C193.655 135.149 194.045 135.819 194.465 136.469C194.861 137.133 195.369 137.725 195.965 138.219ZM334.054 83.9613C333.501 81.1041 332.442 78.3687 330.927 75.8836C330.287 74.6603 329.216 73.7178 327.921 73.2384C326.574 72.9022 325.167 72.8821 323.81 73.1795C322.397 73.4119 320.979 73.794 319.508 74.0706C318.757 74.2256 317.995 74.3191 317.229 74.3504C316.388 74.4025 315.549 74.231 314.797 73.8536C314.035 73.4483 313.413 72.8238 313.01 72.0609C312.644 71.3503 312.392 70.5861 312.266 69.7967C312.198 69.4295 312.149 69.026 312.087 68.7401C312.006 68.4455 311.881 68.1646 311.717 67.9071C311.356 67.3234 310.927 66.7842 310.439 66.3006L310.792 65.3973C310.789 65.3947 310.786 65.3926 310.783 65.3913C310.779 65.39 310.775 65.3895 310.771 65.3898C310.767 65.3901 310.764 65.3911 310.76 65.3929C310.757 65.3947 310.754 65.3972 310.752 65.4002C310.758 65.4002 310.795 65.3751 310.817 65.3656C310.883 65.3297 310.946 65.2876 311.004 65.2401C311.149 65.1264 311.288 65.0045 311.419 64.8751C311.695 64.609 311.965 64.317 312.227 64.0174C312.752 63.4195 313.259 62.7877 313.745 62.1536L314.312 62.7078C314.223 62.7586 314.129 62.8004 314.031 62.8326L313.834 62.8699C313.701 62.8946 313.594 62.8944 313.474 62.9071C313.244 62.9185 313.02 62.9232 312.799 62.92C312.355 62.9158 311.918 62.8973 311.483 62.8709C310.61 62.8214 309.747 62.7408 308.878 62.66C308.827 62.6553 308.778 62.6364 308.737 62.6056C308.696 62.5747 308.664 62.5331 308.645 62.4852C308.513 62.1328 308.361 61.7881 308.19 61.4529C308.02 61.137 307.818 60.7684 307.59 60.6793C306.914 60.4207 306.129 60.2513 305.39 60.0445C304.62 59.8574 303.861 59.6258 303.118 59.3509C303.006 59.2926 302.908 59.2103 302.832 59.1098C302.755 59.0093 302.702 58.8931 302.676 58.7696C302.631 58.5512 302.63 58.326 302.673 58.1072C302.75 57.7076 302.876 57.3192 303.049 56.951C303.742 55.5471 304.553 54.2043 305.472 52.9368C305.909 52.3297 306.251 51.66 306.487 50.9505C306.722 50.2816 306.781 49.5636 306.659 48.8653L306.67 48.8985C306.193 47.6381 305.858 46.3284 305.671 44.9937C305.467 43.677 305.341 42.3496 305.293 41.0181C305.186 38.3637 305.25 35.7052 305.483 33.0589C305.496 32.9145 305.557 32.7787 305.657 32.6734C305.756 32.5681 305.889 32.4995 306.032 32.4788C306.175 32.4581 306.322 32.4863 306.447 32.5591C306.572 32.6319 306.67 32.7448 306.723 32.8797L306.734 32.9083C307.511 34.8672 308.432 36.7656 309.491 38.5877C310.534 40.4049 311.752 42.1154 313.13 43.6944C314.447 45.2555 316.08 46.5192 317.922 47.4022C319.74 48.2197 321.797 48.3282 323.691 47.7062L323.239 48.2477C323.401 47.3535 323.66 46.4797 324.012 45.6422C324.358 44.7428 324.924 43.9446 325.659 43.3207C325.875 43.1702 326.102 43.0363 326.338 42.92C326.593 42.8316 326.854 42.7635 327.119 42.7162C327.383 42.7072 327.647 42.7176 327.909 42.7474C328.156 42.7915 328.398 42.8624 328.629 42.9591C328.861 43.0282 329.079 43.1341 329.277 43.2728L329.876 43.6429C330.227 43.9308 330.563 44.2325 330.901 44.5311C330.95 44.5752 330.989 44.6302 331.014 44.6918C331.459 45.8078 331.827 46.9531 332.115 48.1198C332.419 49.2885 332.585 50.4888 332.611 51.6962C332.655 52.3196 332.572 52.9455 332.365 53.5353C332.158 54.1252 331.833 54.6665 331.41 55.1261C330.919 55.4938 330.352 55.7465 329.751 55.8656C329.149 55.9848 328.529 55.9672 327.935 55.8143C327.926 55.8128 327.917 55.8096 327.909 55.8047C327.901 55.7999 327.894 55.7935 327.889 55.786C327.884 55.7785 327.88 55.7701 327.878 55.7611C327.876 55.7522 327.875 55.7429 327.877 55.7338C327.88 55.7164 327.89 55.7008 327.903 55.6901C327.917 55.6793 327.935 55.6741 327.952 55.6754C328.511 55.7701 329.083 55.7433 329.63 55.5968C330.177 55.4502 330.686 55.1874 331.122 54.8263C331.463 54.3896 331.712 53.8889 331.856 53.3539C331.999 52.8189 332.033 52.2605 331.956 51.712C331.872 50.5664 331.654 49.4344 331.308 48.339C330.975 47.2349 330.567 46.1549 330.086 45.1066L330.199 45.267L329.256 44.515L328.754 44.2294C328.601 44.1229 328.43 44.0458 328.249 44.0021C327.948 43.8618 327.613 43.8113 327.285 43.8564C326.956 43.9015 326.647 44.0404 326.395 44.2565C325.846 44.7716 325.431 45.4135 325.187 46.1261C324.901 46.8747 324.696 47.652 324.577 48.4445C324.558 48.5657 324.507 48.6798 324.429 48.7746C324.351 48.8693 324.249 48.9413 324.134 48.983L324.125 48.9862C321.916 49.775 319.49 49.6918 317.341 48.7535C315.284 47.8125 313.464 46.4226 312.014 44.6859C310.576 43.0247 309.32 41.2135 308.27 39.2836C307.205 37.3769 306.286 35.393 305.518 33.3488L306.769 33.1981C306.487 35.7857 306.353 38.3871 306.367 40.9899C306.369 42.2874 306.436 43.584 306.568 44.8749C306.683 46.1536 306.945 47.4149 307.347 48.6342L307.357 48.6603L307.359 48.6678C307.441 49.4894 307.355 50.3192 307.107 51.1065C306.858 51.8939 306.452 52.6224 305.912 53.2477C304.985 54.4702 304.167 55.7724 303.469 57.1393C303.307 57.4701 303.186 57.8198 303.11 58.1803C303.038 58.5309 303.08 58.8621 303.327 58.9798C304.038 59.2355 304.764 59.4486 305.501 59.618C306.256 59.8177 306.991 59.975 307.774 60.2389C308.159 60.4617 308.463 60.8018 308.641 61.2096C308.833 61.559 309.005 61.9191 309.156 62.2882L308.923 62.1136C309.781 62.1646 310.646 62.1908 311.505 62.1996C311.934 62.2039 312.363 62.2003 312.786 62.183C312.998 62.1754 313.206 62.16 313.408 62.14C313.502 62.1248 313.613 62.1177 313.692 62.0967L313.813 62.0689C313.826 62.0587 313.819 62.0587 313.83 62.0657L314.346 62.3782C314.384 62.4016 314.412 62.4394 314.423 62.4832C314.433 62.527 314.426 62.5733 314.403 62.6119L314.398 62.6202C313.929 63.3006 313.451 63.9608 312.935 64.6094C312.677 64.9339 312.411 65.2532 312.117 65.5655C311.967 65.7286 311.807 65.8829 311.639 66.0276C311.543 66.1121 311.44 66.1879 311.331 66.2542C311.172 66.3639 310.985 66.4276 310.792 66.4385L311.145 65.5354C311.729 66.0585 312.247 66.6496 312.69 67.2962C312.931 67.652 313.114 68.0438 313.232 68.4571C313.335 68.8861 313.376 69.2129 313.453 69.5652C313.513 70.205 313.718 70.8227 314.052 71.372C314.385 71.9214 314.839 72.3881 315.378 72.7374C316.635 73.2051 318.008 73.2631 319.3 72.9031C320.72 72.6653 322.149 72.3084 323.639 72.0911C325.167 71.7785 326.749 71.8564 328.239 72.3177C328.617 72.4563 328.98 72.6327 329.322 72.8443C329.653 73.0711 329.959 73.3316 330.235 73.6217C330.507 73.9002 330.752 74.2034 330.968 74.5274C331.195 74.8318 331.385 75.1585 331.581 75.4805C332.329 76.7754 332.913 78.159 333.318 79.5989C333.745 81.0164 334.038 82.4709 334.193 83.9432C334.194 83.9523 334.193 83.9616 334.19 83.9704C334.187 83.9792 334.183 83.9874 334.177 83.9945C334.171 84.0016 334.164 84.0074 334.156 84.0117C334.148 84.0161 334.139 84.0187 334.13 84.0196C334.112 84.0206 334.095 84.0152 334.081 84.0045C334.067 83.9938 334.057 83.9785 334.054 83.9613V83.9613Z" fill="black"/>
<path d="M361.994 51.1593C360.854 47.8793 352.784 38.9293 350.394 37.8593C350.394 37.8593 350.144 27.8293 346.484 25.3093C346.484 25.3093 355.314 17.8694 345.224 11.5593C345.224 11.5593 336.514 7.52951 336.264 18.4992C336.264 18.4992 315.584 16.2295 306.124 33.1294C306.124 33.1294 312.134 51.8294 323.904 48.3494C323.904 48.3494 325.084 39.9795 330.554 44.8994C330.554 44.8994 335.424 54.8193 329.034 56.4194C327.897 58.5269 327.57 60.9773 328.114 63.3092C329.034 67.1794 327.514 72.6093 327.514 72.6093C327.514 72.6093 323.654 86.3493 335.004 83.9493C346.354 81.5592 364.264 75.3793 367.414 62.8893C367.414 62.8893 363.124 54.4393 361.994 51.1593ZM341.934 20.3893C342.496 20.7342 343.01 21.151 343.464 21.6293C343.969 22.0952 344.28 22.7344 344.334 23.4193C343.948 22.941 343.481 22.5348 342.954 22.2193C342.444 21.8892 341.944 21.5591 341.414 21.2491C340.323 20.6155 339.277 19.9072 338.284 19.1292C339.578 19.2765 340.824 19.7067 341.934 20.3893V20.3893ZM348.674 42.6093C347.658 44.2547 346.397 45.7351 344.934 46.9992C343.476 48.2439 341.883 49.3208 340.184 50.2094C338.505 51.1109 336.726 51.8124 334.884 52.2995C336.584 51.4694 338.204 50.5192 339.794 49.5392C341.37 48.5555 342.871 47.4557 344.284 46.2492C345.675 45.0393 346.926 43.6775 348.014 42.1894C349.052 40.6418 349.842 38.9412 350.354 37.1494C350.21 39.0721 349.636 40.9379 348.674 42.6092L348.674 42.6093Z" fill="black"/>
<path d="M307.639 48.3885C308.178 47.5728 308.929 46.9197 309.812 46.4996C310.257 46.2834 310.733 46.1375 311.223 46.0672C311.717 45.9981 312.22 46.0592 312.683 46.2444C311.79 46.4159 310.926 46.714 310.117 47.1299C309.303 47.5181 308.521 47.9759 307.639 48.3885ZM310.791 52.0877C311.064 52.0783 311.322 51.9634 311.511 51.7674C311.701 51.5713 311.807 51.3094 311.807 51.0368C311.807 50.7642 311.701 50.5022 311.511 50.3062C311.322 50.1101 311.064 49.9952 310.791 49.9858C310.519 49.9952 310.261 50.1101 310.072 50.3062C309.882 50.5022 309.776 50.7642 309.776 51.0368C309.776 51.3094 309.882 51.5713 310.072 51.7674C310.261 51.9634 310.519 52.0783 310.791 52.0877V52.0877ZM367.417 62.8565C372.243 63.1707 376.986 64.2642 381.463 66.0945C385.964 67.8664 390.236 70.1724 394.187 72.9629C402.012 78.6694 408.632 85.8658 413.667 94.1387L415.538 97.2312L417.275 100.399C417.882 101.441 418.391 102.533 418.927 103.612C419.443 104.7 420.032 105.755 420.487 106.871C421.454 109.077 422.437 111.279 423.258 113.545C424.165 115.78 424.911 118.072 425.672 120.359C426.074 121.497 426.407 122.655 426.734 123.814L427.735 127.29C428.341 129.624 428.882 131.979 429.438 134.327L431.717 148.592C431.731 148.683 431.71 148.777 431.658 148.854C431.605 148.931 431.526 148.985 431.435 149.005L421.153 151.261L410.857 153.447L400.56 155.633L390.251 157.763C390.242 157.765 390.232 157.763 390.225 157.758C390.217 157.753 390.211 157.745 390.21 157.736C390.208 157.727 390.209 157.718 390.214 157.71C390.219 157.702 390.227 157.697 390.236 157.695L400.483 155.284L410.743 152.93L421.002 150.577L431.277 148.292L430.996 148.706L428.772 134.451C428.239 132.114 427.71 129.775 427.136 127.446L426.194 123.97C425.885 122.809 425.572 121.65 425.189 120.511C422.483 111.276 418.526 102.454 413.428 94.291C410.826 90.254 407.881 86.4495 404.624 82.9197C401.356 79.4101 397.744 76.2376 393.842 73.4497C389.959 70.6328 385.751 68.2924 381.31 66.479C379.087 65.5768 376.81 64.816 374.492 64.2011C372.178 63.5568 369.809 63.13 367.416 62.9265C367.406 62.9265 367.398 62.9228 367.391 62.9163C367.384 62.9098 367.381 62.9009 367.38 62.8916C367.381 62.8822 367.385 62.8733 367.392 62.8668C367.399 62.8603 367.408 62.8566 367.417 62.8565V62.8565Z" fill="black"/>
<path d="M427.59 149.481C428.204 150.997 428.695 152.56 429.057 154.155C429.45 155.742 429.713 157.359 429.843 158.99C429.228 157.475 428.737 155.911 428.376 154.316C427.984 152.728 427.721 151.111 427.59 149.481V149.481ZM364.516 91.6453C365.39 89.664 366.477 87.7841 367.759 86.0388C369.036 84.2754 370.508 82.6621 372.148 81.2297C373.809 79.7981 375.706 78.6668 377.756 77.8865C378.791 77.5313 379.86 77.2865 380.946 77.156C382.028 77.0634 383.117 77.1011 384.19 77.2683C382.054 77.1936 379.926 77.5758 377.949 78.3894C375.997 79.2198 374.191 80.3588 372.601 81.7627C370.98 83.1457 369.5 84.6872 368.185 86.3643C366.844 88.0393 365.618 89.8037 364.516 91.6453V91.6453ZM402.098 87.1052C403.303 88.0056 404.39 89.0523 405.336 90.2212C406.297 91.3863 407.128 92.6535 407.814 94C408.51 95.3455 409.025 96.7774 409.345 98.2583C409.676 99.7288 409.784 101.241 409.665 102.743C409.527 102.002 409.527 101.259 409.335 100.539L409.126 99.4536L408.823 98.3921C408.409 96.9848 407.862 95.6203 407.189 94.3169C406.522 93.007 405.76 91.7474 404.91 90.5479C404.049 89.3403 403.11 88.1903 402.098 87.1052V87.1052ZM362.562 99.2417C361.526 101.778 360.47 104.305 359.372 106.812C358.265 109.315 357.205 111.84 356.056 114.324L352.662 121.799C351.514 124.282 350.343 126.756 349.125 129.208L348.945 128.526L357.676 135.066C360.593 137.238 363.566 139.329 366.55 141.405C369.526 143.493 372.552 145.511 375.562 147.551C378.583 149.575 381.57 151.647 384.562 153.712L383.718 153.801C386.362 150.742 388.842 147.546 391.148 144.224C393.465 140.91 395.677 137.519 397.663 133.999C399.659 130.485 401.398 126.831 402.867 123.067C404.292 119.274 405.28 115.331 405.812 111.315C405.813 111.305 405.815 111.297 405.82 111.288C405.824 111.28 405.83 111.273 405.837 111.267C405.844 111.261 405.852 111.257 405.861 111.254C405.87 111.251 405.879 111.25 405.888 111.251C405.906 111.253 405.922 111.262 405.933 111.275C405.945 111.288 405.952 111.305 405.952 111.323C405.766 115.422 405.027 119.477 403.755 123.378C402.433 127.265 400.8 131.039 398.873 134.664C396.924 138.271 394.75 141.752 392.364 145.087C389.979 148.423 387.408 151.622 384.663 154.67C384.558 154.785 384.413 154.858 384.258 154.875C384.102 154.891 383.946 154.85 383.818 154.759C380.883 152.614 377.943 150.475 375.037 148.29C372.119 146.119 369.218 143.927 366.266 141.805C363.323 139.671 360.369 137.553 357.358 135.514L348.307 129.424C348.204 129.354 348.128 129.25 348.093 129.13C348.058 129.01 348.066 128.882 348.116 128.768L348.127 128.742C349.222 126.233 350.363 123.746 351.527 121.27L355.068 113.863C356.232 111.386 357.484 108.951 358.689 106.494C359.903 104.04 361.16 101.607 362.435 99.1827C362.444 99.1667 362.458 99.1547 362.475 99.1489C362.492 99.1432 362.51 99.1442 362.527 99.1518C362.543 99.1593 362.556 99.1729 362.562 99.1897C362.569 99.2064 362.569 99.2251 362.562 99.2418V99.2417ZM320.424 73.303C319.457 78.8032 318.426 84.2916 317.333 89.7681C316.23 95.2422 315.112 100.714 313.839 106.155C313.197 108.871 312.514 111.592 311.667 114.258L309.104 122.233C308.235 124.882 307.545 127.586 307.036 130.327C306.786 131.693 306.658 133.078 306.654 134.467C306.67 135.841 306.935 137.202 307.436 138.482L307.084 138.486C308.396 135.702 310.237 133.2 312.504 131.119C314.752 129.012 317.371 127.339 320.228 126.185C320.938 125.892 321.683 125.691 322.409 125.44C322.776 125.328 323.135 125.183 323.51 125.1L324.639 124.868C325.394 124.73 326.139 124.522 326.903 124.443L329.197 124.242C329.961 124.167 330.729 124.153 331.495 124.202L333.793 124.265C335.316 124.411 336.83 124.651 338.348 124.841L337.936 125.267C336.879 120.267 336.053 115.23 335.327 110.176C334.538 105.13 334.123 100.032 334.088 94.9243C334.088 94.9197 334.089 94.9152 334.091 94.9109C334.093 94.9067 334.095 94.9029 334.099 94.8997C334.102 94.8964 334.106 94.8939 334.11 94.8922C334.114 94.8905 334.119 94.8896 334.123 94.8897C334.133 94.8899 334.141 94.8936 334.148 94.9C334.154 94.9065 334.158 94.9152 334.158 94.9243C334.213 97.4729 334.468 100.009 334.754 102.538C335.031 105.069 335.404 107.59 335.801 110.105C336.2 112.62 336.651 115.127 337.128 117.629C337.614 120.128 338.109 122.629 338.633 125.116C338.643 125.162 338.643 125.21 338.635 125.256C338.626 125.302 338.609 125.346 338.583 125.385C338.557 125.424 338.524 125.458 338.485 125.485C338.447 125.511 338.403 125.53 338.357 125.54C338.32 125.548 338.281 125.549 338.242 125.545L338.221 125.542C336.728 125.362 335.238 125.13 333.742 124.991L331.489 124.937C330.739 124.891 329.987 124.907 329.241 124.984L326.998 125.167C326.251 125.236 325.525 125.435 324.787 125.562L323.683 125.778C323.317 125.856 322.967 125.996 322.608 126.101C321.899 126.34 321.17 126.529 320.477 126.808C317.685 127.92 315.112 129.516 312.877 131.525C310.622 133.521 308.775 135.934 307.438 138.633L307.43 138.649C307.414 138.682 307.389 138.709 307.358 138.728C307.327 138.747 307.29 138.756 307.254 138.755C307.217 138.754 307.182 138.742 307.152 138.721C307.122 138.7 307.099 138.671 307.085 138.637C306.59 137.303 306.342 135.891 306.353 134.468C306.389 133.064 306.536 131.665 306.793 130.285C307.339 127.541 308.032 124.83 308.872 122.162C309.685 119.489 310.533 116.829 311.293 114.146C312.075 111.47 312.679 108.754 313.273 106.026L320.355 73.2895C320.357 73.2804 320.362 73.2724 320.37 73.2672C320.378 73.262 320.387 73.2601 320.396 73.2619C320.406 73.2637 320.414 73.269 320.419 73.2767C320.424 73.2844 320.426 73.2938 320.424 73.303H320.424Z" fill="black"/>
<path d="M308.285 136.636C308.536 137.722 308.837 138.783 309.154 139.832C309.467 140.875 309.854 141.894 310.314 142.881C310.746 143.866 311.314 144.785 312.001 145.613C312.706 146.443 313.584 147.106 314.575 147.556C313.449 147.344 312.413 146.798 311.603 145.988C310.794 145.177 310.142 144.224 309.679 143.177C309.205 142.152 308.852 141.076 308.627 139.969C308.387 138.874 308.273 137.756 308.285 136.636V136.636ZM338.284 125.192C339.779 125.905 341.216 126.735 342.579 127.676C343.96 128.591 345.265 129.616 346.482 130.741C344.985 130.029 343.549 129.198 342.187 128.256C340.806 127.34 339.502 126.315 338.284 125.192ZM258.664 168.743C259.149 168.237 259.71 167.809 260.326 167.475C260.956 167.098 261.703 166.967 262.424 167.107C263.147 167.333 263.753 167.835 264.109 168.503C264.279 168.824 264.432 169.157 264.571 169.491L264.892 170.521C264.92 170.609 264.911 170.706 264.868 170.788C264.825 170.87 264.751 170.932 264.662 170.96C264.573 170.988 264.477 170.979 264.394 170.936C264.312 170.893 264.25 170.818 264.222 170.73L264.215 170.702L264.207 170.665L263.989 169.683C263.887 169.369 263.774 169.056 263.647 168.753C263.395 168.16 262.921 167.69 262.327 167.443C261.683 167.269 260.998 167.337 260.401 167.633C259.768 167.911 259.183 168.286 258.664 168.743V168.743ZM250.649 169.71C251.744 168.324 252.762 166.88 253.7 165.384C254.17 164.636 254.599 163.863 254.985 163.068C255.397 162.283 255.675 161.435 255.806 160.558C255.731 161.449 255.508 162.321 255.146 163.138C254.809 163.965 254.428 164.773 254.003 165.558C253.156 167.132 252.223 168.658 251.21 170.13C251.184 170.168 251.15 170.201 251.112 170.226C251.073 170.251 251.03 170.268 250.985 170.277C250.94 170.285 250.893 170.284 250.848 170.275C250.803 170.265 250.76 170.247 250.722 170.221C250.684 170.195 250.652 170.162 250.627 170.123C250.602 170.085 250.584 170.042 250.576 169.996C250.567 169.951 250.568 169.905 250.577 169.86C250.587 169.815 250.605 169.772 250.631 169.734L250.644 169.716L250.649 169.71ZM249.123 167.008L255.806 155.789L249.734 167.35C249.691 167.432 249.617 167.494 249.528 167.521C249.44 167.548 249.344 167.54 249.262 167.496C249.18 167.453 249.118 167.379 249.09 167.291C249.063 167.202 249.071 167.106 249.114 167.024L249.123 167.008ZM252.396 157.537L256.815 151.423L252.982 157.921C252.959 157.961 252.928 157.996 252.891 158.023C252.854 158.051 252.812 158.072 252.767 158.083C252.723 158.095 252.676 158.098 252.63 158.091C252.585 158.085 252.541 158.069 252.501 158.046C252.461 158.022 252.426 157.991 252.399 157.954C252.371 157.918 252.351 157.876 252.339 157.831C252.328 157.786 252.325 157.739 252.332 157.694C252.339 157.648 252.354 157.604 252.378 157.564L252.396 157.537Z" fill="black"/>
<path d="M54.5488 184.39C45.7077 189 36.8066 193.486 27.9344 198.032L14.5829 204.763L1.22179 211.473L0.718946 209.3L15.6737 209.114L30.6286 208.998L60.5384 208.837C80.4783 208.752 100.418 208.774 120.359 209.057L150.269 209.396L165.224 209.568L180.179 209.668C200.119 209.76 220.059 209.628 239.999 209.489L299.818 208.785L329.728 208.524L359.638 208.36C399.517 208.073 439.397 208.067 479.278 208.342L478.471 211.319L454.808 197.207C446.91 192.52 439.06 187.751 431.192 183.013L407.612 168.76L384.101 154.387C384.062 154.363 384.034 154.324 384.023 154.28C384.011 154.235 384.018 154.188 384.041 154.149C384.064 154.109 384.102 154.08 384.147 154.068C384.191 154.056 384.238 154.062 384.278 154.084L408.312 167.564L432.277 181.162C440.257 185.709 448.255 190.224 456.206 194.822L480.087 208.561C480.39 208.736 480.628 209.005 480.763 209.327C480.898 209.65 480.923 210.008 480.835 210.347C480.747 210.685 480.549 210.985 480.274 211.2C479.998 211.416 479.66 211.535 479.31 211.539H479.281C439.401 211.917 399.522 211.995 359.641 211.772L329.731 211.672L299.821 211.474L240.001 210.896C220.06 210.798 200.12 210.709 180.181 210.843L165.226 210.974L150.271 211.178L120.361 211.58C100.422 211.905 80.4818 211.969 60.5417 211.927L30.6317 211.828L15.6766 211.744L0.721411 211.589L0.694929 211.589C0.436735 211.586 0.187074 211.496 -0.0132697 211.333C-0.213613 211.17 -0.352795 210.944 -0.408091 210.692C-0.463386 210.44 -0.431525 210.176 -0.317705 209.945C-0.203886 209.713 -0.0148385 209.526 0.218557 209.416L13.7333 203.021L27.2578 196.645C36.3028 192.453 45.3191 188.203 54.3953 184.075C54.4368 184.056 54.4842 184.054 54.5271 184.07C54.5701 184.085 54.6054 184.117 54.6254 184.158C54.6454 184.199 54.6486 184.246 54.6343 184.289C54.62 184.333 54.5893 184.369 54.5488 184.39L54.5488 184.39Z" fill="black"/>
<path d="M0.719727 221.29L60.5397 220.779L120.36 220.485L240 220.241L359.64 220.482L419.46 220.776L479.28 221.29L419.46 221.804L359.64 222.099L240 222.34L120.36 222.095L60.5397 221.801L0.719727 221.29Z" fill="black"/>
<path d="M349.239 129.41C345.675 134.994 341.305 140.02 336.271 144.326C331.279 148.771 325.477 152.211 319.181 154.458C316.012 155.541 312.733 156.275 309.404 156.646C307.74 156.821 306.067 156.91 304.394 156.911L301.905 156.833L299.436 156.841L279.687 156.918C279.589 156.918 279.493 156.898 279.403 156.859C274.072 154.53 268.736 152.204 263.383 149.938C262.058 149.385 260.675 148.786 259.396 148.315L259.181 148.24C259.148 148.244 259.165 148.262 259.154 148.246C259.05 148.268 258.949 148.304 258.854 148.352C258.577 148.486 258.316 148.654 258.078 148.85C257.547 149.274 257.063 149.753 256.633 150.279C254.832 152.409 253.703 155.025 253.387 157.797C253.375 157.909 253.337 158.016 253.277 158.111C252.672 159.055 252.075 160.002 251.517 160.963C250.96 161.901 250.479 162.882 250.077 163.896C249.898 164.365 249.775 164.853 249.712 165.351C249.682 165.8 249.764 166.249 249.949 166.658C250.543 167.63 251.087 168.632 251.58 169.659C251.635 169.802 251.644 169.958 251.605 170.106L251.604 170.112C251.447 170.748 251.378 171.402 251.401 172.057C251.413 172.684 251.558 173.302 251.829 173.868C252.089 174.402 252.518 174.834 253.049 175.098C253.615 175.384 254.23 175.559 254.861 175.612L254.722 175.613C255.655 175.486 256.576 175.287 257.477 175.018C258.382 174.758 259.26 174.416 260.102 173.995C260.924 173.586 261.687 173.069 262.374 172.46C263.017 171.854 263.537 171.129 263.903 170.325C263.962 170.193 264.06 170.083 264.183 170.009C264.306 169.934 264.449 169.899 264.592 169.908C264.736 169.917 264.873 169.969 264.986 170.058C265.099 170.147 265.183 170.268 265.225 170.406L265.23 170.422C265.659 171.802 266.388 173.07 267.364 174.136C268.343 175.204 269.558 176.029 270.912 176.545C272.304 177.012 273.768 177.226 275.235 177.178C275.975 177.161 276.719 177.032 277.461 176.967L279.666 176.475L279.691 176.469C279.814 176.442 279.942 176.447 280.063 176.482C284.485 177.756 288.977 178.772 293.517 179.524C298.061 180.302 302.642 180.849 307.241 181.165C316.434 181.844 325.675 181.39 334.757 179.813C339.273 178.966 343.715 177.76 348.039 176.205L351.246 174.958L354.378 173.535C355.447 173.111 356.437 172.53 357.466 172.022C358.499 171.521 359.506 170.967 360.482 170.363C364.465 168.047 368.175 165.292 371.543 162.149L374.037 159.747C374.82 158.901 375.576 158.027 376.348 157.166L377.5 155.869L378.549 154.488L380.651 151.721L378.661 154.572L377.665 155.999L376.563 157.346C375.824 158.24 375.099 159.149 374.345 160.034L371.933 162.552C368.65 165.871 365.006 168.812 361.069 171.318C357.149 173.881 352.936 175.963 348.52 177.521C344.123 179.102 339.605 180.33 335.012 181.191C325.814 182.789 316.455 183.25 307.146 182.563C302.5 182.244 297.873 181.691 293.282 180.906C288.679 180.143 284.125 179.112 279.642 177.818L280.039 177.825L277.691 178.349C276.886 178.424 276.088 178.559 275.276 178.579C273.629 178.632 271.985 178.389 270.425 177.859C268.861 177.264 267.458 176.312 266.327 175.079C265.193 173.844 264.354 172.368 263.871 170.762L265.198 170.86C264.754 171.851 264.118 172.744 263.327 173.487C262.544 174.186 261.672 174.777 260.734 175.246C259.817 175.704 258.86 176.078 257.874 176.361C256.893 176.655 255.889 176.871 254.874 177.006L254.859 177.008C254.817 177.013 254.776 177.013 254.734 177.007C253.912 176.937 253.112 176.707 252.378 176.329C251.601 175.929 250.971 175.291 250.582 174.508C250.218 173.76 250.02 172.942 250.001 172.11C249.971 171.308 250.057 170.505 250.257 169.727L250.28 170.18C249.906 169.188 249.259 168.414 248.672 167.233C248.39 166.609 248.268 165.924 248.315 165.241C248.387 164.616 248.537 164.003 248.761 163.415C249.19 162.326 249.705 161.272 250.302 160.265C250.879 159.272 251.487 158.306 252.102 157.347L251.992 157.66C252.335 154.607 253.577 151.723 255.561 149.376C256.054 148.776 256.608 148.229 257.216 147.745C257.541 147.48 257.897 147.255 258.276 147.075C258.508 146.963 258.755 146.888 259.01 146.853C259.182 146.845 259.356 146.854 259.526 146.882L259.828 146.982C261.28 147.515 262.566 148.081 263.928 148.647C269.295 150.919 274.629 153.244 279.965 155.576L279.682 155.517L299.472 155.44L301.946 155.432L304.397 155.51C306.019 155.508 307.64 155.423 309.252 155.253C312.479 154.898 315.656 154.183 318.723 153.121C324.895 150.975 330.65 147.781 335.736 143.679C338.304 141.636 340.724 139.413 342.978 137.028C345.256 134.652 347.349 132.105 349.239 129.41ZM179.918 109.481C179.224 109.834 178.526 110.177 177.818 110.493L177.928 110.236C178.378 111.203 178.791 112.185 179.199 113.168C179.62 114.147 180.003 115.14 180.348 116.149C180.699 117.155 181.022 118.172 181.391 119.171C181.762 120.17 182.174 121.152 182.597 122.129C184.354 126.014 186.026 129.932 187.443 133.952L187.068 133.791C188.483 133.282 189.909 132.804 191.352 132.366C191.36 132.364 191.369 132.364 191.377 132.368C191.385 132.372 191.391 132.379 191.394 132.387C191.398 132.395 191.398 132.404 191.395 132.413C191.391 132.421 191.385 132.428 191.377 132.431C190.027 133.1 188.661 133.732 187.281 134.327C187.213 134.356 187.137 134.358 187.068 134.331C187 134.304 186.945 134.251 186.915 134.184L186.906 134.165C185.18 130.268 183.708 126.27 182.322 122.238C181.959 121.237 181.586 120.24 181.17 119.259C180.754 118.279 180.291 117.317 179.856 116.344C179.414 115.374 179.011 114.389 178.647 113.387C178.27 112.392 177.897 111.394 177.561 110.382L177.555 110.364C177.539 110.316 177.542 110.265 177.564 110.221C177.586 110.176 177.625 110.142 177.671 110.125C178.403 109.867 179.145 109.637 179.892 109.416C179.9 109.414 179.909 109.415 179.917 109.418C179.925 109.422 179.931 109.429 179.934 109.437C179.938 109.445 179.938 109.454 179.935 109.463C179.931 109.471 179.925 109.478 179.918 109.482V109.481ZM191.962 132.116C193.944 131.276 195.915 130.408 197.907 129.59L203.879 127.129C207.866 125.506 211.859 123.897 215.885 122.369L215.734 122.718L213.475 116.744L211.17 110.788C209.598 106.832 207.968 102.898 206.343 98.9629L206.638 99.0901C202.556 100.78 198.464 102.449 194.365 104.096L194.35 104.102C194.288 104.127 194.22 104.131 194.155 104.112C193.897 104.056 193.657 103.938 193.454 103.768C193.249 103.585 193.101 103.347 193.028 103.082C192.965 102.842 192.946 102.594 192.969 102.347C192.988 102.111 193.035 101.878 193.11 101.653C193.121 101.621 193.137 101.591 193.157 101.564L193.164 101.555C193.558 101.054 193.777 100.438 193.786 99.8006C193.784 99.4921 193.718 99.1875 193.593 98.9056C193.468 98.6237 193.286 98.3705 193.059 98.1619C192.553 97.7528 191.945 97.4912 191.301 97.4059C190.657 97.3205 190.001 97.4148 189.407 97.6783C188.791 97.8949 188.245 98.2747 187.828 98.7773C187.411 99.2799 187.138 99.8863 187.039 100.532C187.012 100.847 187.049 101.165 187.149 101.466C187.249 101.766 187.409 102.043 187.62 102.28C188.069 102.761 188.667 103.078 189.318 103.178L189.331 103.18C189.353 103.184 189.374 103.192 189.393 103.203C189.804 103.418 190.146 103.745 190.378 104.146C190.495 104.371 190.544 104.624 190.52 104.876C190.487 105.118 190.397 105.349 190.256 105.549C190.234 105.586 190.199 105.615 190.158 105.631L190.15 105.634C186.887 106.891 183.613 108.12 180.328 109.321C180.319 109.324 180.31 109.324 180.302 109.32C180.294 109.316 180.287 109.309 180.284 109.301C180.281 109.293 180.281 109.283 180.284 109.275C180.287 109.267 180.294 109.26 180.302 109.256C183.514 107.873 186.74 106.522 189.979 105.204L189.873 105.289C189.97 105.159 190.028 105.005 190.04 104.843C190.052 104.682 190.017 104.521 189.94 104.378C189.747 104.077 189.476 103.834 189.156 103.675L189.231 103.699C188.455 103.597 187.736 103.236 187.189 102.676C186.916 102.384 186.705 102.04 186.569 101.664C186.433 101.288 186.375 100.889 186.398 100.49C186.483 99.7115 186.786 98.9727 187.272 98.3586C187.758 97.7445 188.407 97.2799 189.145 97.0183C189.864 96.7007 190.658 96.5895 191.437 96.6971C192.216 96.8048 192.949 97.1271 193.555 97.6279C193.856 97.9033 194.097 98.2375 194.264 98.6097C194.431 98.9819 194.52 99.3844 194.525 99.7922C194.525 100.596 194.25 101.376 193.745 102.002L193.799 101.905C193.685 102.221 193.658 102.562 193.721 102.892C193.758 103.028 193.834 103.151 193.939 103.246C194.044 103.34 194.174 103.403 194.314 103.425L194.105 103.441C198.217 101.825 202.339 100.234 206.471 98.6675L206.477 98.6653C206.532 98.6441 206.594 98.6459 206.648 98.6702C206.702 98.6945 206.745 98.7394 206.766 98.7949C208.285 102.773 209.797 106.753 211.369 110.709L213.779 116.623L216.235 122.519C216.262 122.584 216.262 122.657 216.235 122.722C216.208 122.787 216.157 122.839 216.092 122.866L216.092 122.866L216.084 122.869C212.106 124.518 208.096 126.085 204.081 127.638L198.047 129.943C196.037 130.714 194.007 131.433 191.988 132.181C191.979 132.185 191.969 132.184 191.961 132.181C191.953 132.177 191.946 132.17 191.943 132.161C191.939 132.153 191.939 132.143 191.943 132.135C191.947 132.126 191.953 132.12 191.962 132.116L191.962 132.116ZM439.428 186.987L399.387 163.025L433.123 157.729C433.123 157.729 441.446 167.818 439.428 186.987Z" fill="black"/>
</g>
<defs>
<clipPath id="clip0">
<rect width="481" height="222" fill="white"/>
</clipPath>
</defs>
</svg>
