<svg id="SvgjsSvg1028" width="288" height="288" xmlns="http://www.w3.org/2000/svg" version="1.1" xmlns:xlink="http://www.w3.org/1999/xlink" xmlns:svgjs="http://svgjs.com/svgjs"><defs id="SvgjsDefs1029"></defs><g id="SvgjsG1030"><svg xmlns="http://www.w3.org/2000/svg" width="288" height="288" viewBox="0 0 40.5 27"><path fill="#1d1d21" d="M23.639,4.5H3.361A3.361,3.361,0,0,0,0,7.861V28.139A3.361,3.361,0,0,0,3.361,31.5H23.639A3.361,3.361,0,0,0,27,28.139V7.861A3.361,3.361,0,0,0,23.639,4.5ZM36.956,7.151,29.25,12.466V23.534l7.706,5.309A2.255,2.255,0,0,0,40.5,27.028V8.965A2.255,2.255,0,0,0,36.956,7.151Z" data-name="Icon awesome-video" transform="translate(0 -4.5)" class="colorfff svgShape"></path></svg></g></svg>