<svg id="SvgjsSvg1038" width="288" height="288" xmlns="http://www.w3.org/2000/svg" version="1.1" xmlns:xlink="http://www.w3.org/1999/xlink" xmlns:svgjs="http://svgjs.com/svgjs"><defs id="SvgjsDefs1039"></defs><g id="SvgjsG1040"><svg xmlns="http://www.w3.org/2000/svg" width="288" height="288" viewBox="0 0 35 35"><path fill="#1d1d21" d="M31.25,15.313H29.375V10.391C29.375,4.662,24.047,0,17.5,0S5.625,4.662,5.625,10.391v4.922H3.75A3.54,3.54,0,0,0,0,18.594V31.719A3.54,3.54,0,0,0,3.75,35h27.5A3.54,3.54,0,0,0,35,31.719V18.594A3.54,3.54,0,0,0,31.25,15.313Zm-8.125,0H11.875V10.391c0-2.714,2.523-4.922,5.625-4.922s5.625,2.208,5.625,4.922Z" data-name="Icon awesome-lock" class="colorfff svgShape"></path></svg></g></svg>